HIERARCHY
ROOT Hips
{
	OFFSET 0.000000 0.000000 0.000000
	CHANNELS 6 Xposition Yposition Zposition Zrotation Yrotation Xrotation 
	JOINT LeftUpLeg_virtual
	{
		OFFSET 0.000000 0.000000 0.000000
		CHANNELS 3 Zrotation Yrotation Xrotation
		JOINT LeftUpLeg
		{
			OFFSET 8.479694 -4.795517 -0.379053
			CHANNELS 3 Zrotation Yrotation Xrotation
			JOINT LeftLeg
			{
				OFFSET 0.485052 -32.551468 0.112863
				CHANNELS 3 Zrotation Yrotation Xrotation
				JOINT LeftFoot
				{
					OFFSET 0.438033 -32.635670 -3.012641
					CHANNELS 3 Zrotation Yrotation Xrotation
					JOINT LeftToeBase
					{
						OFFSET 0.970169 -13.225353 11.864223
						CHANNELS 3 Zrotation Yrotation Xrotation
						End Site
						{
							OFFSET 0.000000 0.000000 0.000000
						}
					}
				}
			}
		}
	}
	JOINT RightUpLeg_virtual
	{
		OFFSET 0.000000 0.000000 0.000000
		CHANNELS 3 Zrotation Yrotation Xrotation
		JOINT RightUpLeg
		{
			OFFSET -8.479694 -4.795517 -0.379053
			CHANNELS 3 Zrotation Yrotation Xrotation
			JOINT RightLeg
			{
				OFFSET -0.484100 -32.551483 0.112903
				CHANNELS 3 Zrotation Yrotation Xrotation
				JOINT RightFoot
				{
					OFFSET -0.438985 -32.635651 -3.012681
					CHANNELS 3 Zrotation Yrotation Xrotation
					JOINT RightToeBase
					{
						OFFSET -0.970169 -13.225354 11.864223
						CHANNELS 3 Zrotation Yrotation Xrotation
						End Site
						{
							OFFSET 0.000000 0.000000 0.000000
						}
					}
				}
			}
		}
	}
	JOINT Spine_virtual
	{
		OFFSET 0.000000 0.000000 0.000000
		CHANNELS 3 Zrotation Yrotation Xrotation
		JOINT Spine
		{
			OFFSET 0.000000 7.722015 1.166203
			CHANNELS 3 Zrotation Yrotation Xrotation
			JOINT Spine1
			{
				OFFSET 0.000000 12.024086 0.248766
				CHANNELS 3 Zrotation Yrotation Xrotation
				JOINT Spine2
				{
					OFFSET -0.000000 11.503036 -0.491240
					CHANNELS 3 Zrotation Yrotation Xrotation
					JOINT Neck_virtual
					{
						OFFSET 0.000000 0.000000 0.000000
						CHANNELS 3 Zrotation Yrotation Xrotation
						JOINT Neck
						{
							OFFSET 0.000000 18.430687 -3.123054
							CHANNELS 3 Zrotation Yrotation Xrotation
							JOINT Head
							{
								OFFSET -0.000000 9.051071 1.034021
								CHANNELS 3 Zrotation Yrotation Xrotation
								End Site
								{
									OFFSET 0.000000 0.000000 0.000000
								}
							}
						}
					}
					JOINT LeftShoulder_virtual
					{
						OFFSET 0.000000 0.000000 0.000000
						CHANNELS 3 Zrotation Yrotation Xrotation
						JOINT LeftShoulder
						{
							OFFSET 6.197824 13.665230 -4.064723
							CHANNELS 3 Zrotation Yrotation Xrotation
							JOINT LeftArm
							{
								OFFSET 7.778132 -0.187073 -1.709282
								CHANNELS 3 Zrotation Yrotation Xrotation
								JOINT LeftForeArm
								{
									OFFSET 21.954697 0.000000 -2.041093
									CHANNELS 3 Zrotation Yrotation Xrotation
									JOINT LeftHand
									{
										OFFSET 22.992908 0.000000 -0.870901
										CHANNELS 3 Zrotation Yrotation Xrotation
										End Site
										{
											OFFSET 0.000000 0.000000 0.000000
										}
									}
								}
							}
						}
					}
					JOINT RightShoulder_virtual
					{
						OFFSET 0.000000 0.000000 0.000000
						CHANNELS 3 Zrotation Yrotation Xrotation
						JOINT RightShoulder
						{
							OFFSET -6.197824 13.665230 -4.064723
							CHANNELS 3 Zrotation Yrotation Xrotation
							JOINT RightArm
							{
								OFFSET -7.778132 -0.187073 -1.709282
								CHANNELS 3 Zrotation Yrotation Xrotation
								JOINT RightForeArm
								{
									OFFSET -21.954697 0.000000 -2.041093
									CHANNELS 3 Zrotation Yrotation Xrotation
									JOINT RightHand
									{
										OFFSET -22.992908 0.000000 -0.870901
										CHANNELS 3 Zrotation Yrotation Xrotation
										End Site
										{
											OFFSET 0.000000 0.000000 0.000000
										}
									}
								}
							}
						}
					}
				}
			}
		}
	}
}
MOTION
Frames: 4
Frame Time: 0.033333
7.057350 81.642006 10.495227 -179.966605 2.765209 -179.963163 -4.155950 -0.550979 11.207841 0.665757 -2.361759 -25.023038 5.809170 6.983752 26.333987 -4.811700 -6.064890 -8.087089 0.000000 0.000000 0.000000 -0.466556 -1.331426 10.637544 -0.811328 -1.853050 -16.848646 -1.262975 3.318654 26.211481 7.873238 9.343781 -11.119551 0.000000 0.000000 0.000000 3.573147 1.225704 2.884400 -4.666816 1.127171 -1.224814 0.512157 -3.591461 4.073937 -0.006155 -0.032596 0.031178 0.432575 -2.698730 4.574167 1.034882 4.281394 -16.943850 0.000000 0.000000 0.000000 1.509899 -1.737197 2.136451 11.733684 4.953258 -4.543117 -18.672805 -1.651950 -36.676886 -6.434298 -17.978796 -4.195861 0.000000 0.000000 0.000000 -2.169167 -0.561220 1.579289 5.730510 -7.443063 -5.953349 24.386579 -9.043491 -38.439171 -0.189219 26.538148 -6.794072 0.000000 0.000000 0.000000 
7.151238 81.649071 10.440661 -179.967821 2.716006 -179.950623 -4.135827 -0.582426 11.187043 0.647415 -2.339507 -25.068138 5.765022 6.942378 26.302637 -4.563825 -5.950285 -7.925152 0.000000 0.000000 0.000000 -0.436866 -1.226970 10.783310 -0.857574 -1.691935 -16.806700 -1.164491 3.516849 26.387512 8.125868 9.687071 -11.358704 0.000000 0.000000 0.000000 3.634680 1.406949 2.926884 -4.653182 1.179437 -1.234403 0.503578 -3.654965 4.076090 0.007547 -0.113950 0.027134 0.378734 -2.689434 4.603090 1.022530 4.241440 -16.936053 0.000000 0.000000 0.000000 1.472629 -1.808498 2.167408 11.757441 4.763996 -4.497575 -18.742866 -1.683368 -36.512357 -6.313549 -18.142179 -3.996079 0.000000 0.000000 0.000000 -2.270811 -0.571994 1.576928 5.823105 -7.569935 -5.948931 24.348234 -9.235363 -38.561271 -0.111641 26.414903 -6.780030 0.000000 0.000000 0.000000 
7.341735 81.646133 10.388420 179.906869 2.895031 -179.953218 -4.227701 -0.561926 11.206936 0.687358 -2.206554 -25.149610 5.880137 6.790033 26.471511 -4.528973 -6.128387 -7.975876 0.000000 0.000000 0.000000 -0.428287 -1.102293 10.831902 -0.816484 -1.760381 -16.906074 -1.144028 3.388731 26.530618 8.159309 9.691884 -11.437622 0.000000 0.000000 0.000000 3.613696 1.422393 2.963141 -4.705625 1.010345 -1.208117 0.467477 -3.512248 4.098776 -0.026559 -0.016929 0.032248 0.446536 -2.608621 4.603211 0.838824 4.150048 -16.826656 0.000000 0.000000 0.000000 1.570246 -1.747352 2.127129 11.731909 4.575387 -4.575662 -19.040824 -1.535379 -36.429080 -6.217333 -18.190238 -4.073853 0.000000 0.000000 0.000000 -2.167946 -0.538071 1.623164 5.923677 -7.660966 -5.917797 24.380306 -9.178962 -38.774062 0.025565 26.331636 -6.620194 0.000000 0.000000 0.000000 
7.614353 81.622711 10.341676 179.996399 3.127574 -179.986686 -3.951121 -0.484620 11.217357 0.721501 -2.344622 -25.137891 5.978708 6.837546 26.669565 -4.441757 -6.239670 -8.032500 0.000000 0.000000 0.000000 -0.293060 -0.948728 10.900395 -0.737879 -1.614506 -16.974265 -1.072180 3.312618 26.698001 8.139407 9.555613 -11.565531 0.000000 0.000000 0.000000 3.748961 1.480290 3.039894 -4.669419 0.913936 -1.158748 0.510806 -3.459451 4.118232 -0.007253 -0.025605 0.011791 0.432936 -2.550785 4.618051 0.545518 4.048376 -16.641464 0.000000 0.000000 0.000000 1.585227 -1.666410 2.091942 11.703773 4.351003 -4.536549 -19.529251 -1.200190 -36.320310 -6.036213 -18.161809 -3.880811 0.000000 0.000000 0.000000 -2.151350 -0.449586 1.612967 6.246095 -7.736270 -5.746835 24.465632 -9.086563 -38.716097 -0.009566 26.328965 -6.723759 0.000000 0.000000 0.000000 
